<?xml version="1.0" standalone="no"?><!DOCTYPE svg PUBLIC "-//W3C//DTD SVG 1.1//EN" "http://www.w3.org/Graphics/SVG/1.1/DTD/svg11.dtd"><svg t="1713618119750" class="icon" viewBox="0 0 1024 1024" version="1.1" xmlns="http://www.w3.org/2000/svg" p-id="14381" xmlns:xlink="http://www.w3.org/1999/xlink" width="200" height="200"><path d="M873.668 575.628l0.372 0.372L512 938.04 149.96 576l0.372-0.372a255.94 255.94 0 1 1 361.268-361.28l0.4-0.4 0.4 0.4a255.94 255.94 0 1 1 361.268 361.28zM694.856 168c-69.468 0-119.792 34.364-162.504 82.46L508 250.108l-16.352 0.352C448.936 202.364 398.616 168 329.144 168 200.4 168 104 256 104 396.612c0 69.312 30.4 115.508 78.624 158.12l-0.34 0.34L512 880.036l329.712-324.964-0.336-0.34C889.6 512.12 920 465.924 920 396.612 920 256 823.62 168 694.856 168z" fill="#8A74FB" p-id="14382"></path><path d="M996 460h-320a19.976 19.976 0 0 1-17.104-9.672L600.8 392.244l-85.384 257.288a18 18 0 0 1-13.236 19.128l-3.864 1.032a18 18 0 0 1-22.048-12.724l-62.644-232.4-105.72 99.528A22.212 22.212 0 0 1 285.056 532H32a20 20 0 0 1 0-40h252.28l123.176-115.956a17.932 17.932 0 0 1 3.844-3.896 19.94 19.94 0 0 1 33.752 15.252l52.028 193.036 74.984-225.952a19.868 19.868 0 0 1 3.568-10.756l0.048-0.14a18 18 0 0 1 23.792-6.996 19.84 19.84 0 0 1 5.2 3.084 17.836 17.836 0 0 1 4.776 4.636L685.136 420H996a20 20 0 0 1 0 40z" fill="#7FE6F9" p-id="14383"></path></svg>