<?xml version="1.0" standalone="no"?><!DOCTYPE svg PUBLIC "-//W3C//DTD SVG 1.1//EN" "http://www.w3.org/Graphics/SVG/1.1/DTD/svg11.dtd"><svg t="1713616871649" class="icon" viewBox="0 0 1024 1024" version="1.1" xmlns="http://www.w3.org/2000/svg" p-id="7631" xmlns:xlink="http://www.w3.org/1999/xlink" width="200" height="200"><path d="M567.1 810.1c-46.3 0-85.9-29.4-96.2-71.5-1.8-7.3 2.7-14.7 10-16.5 7.3-1.8 14.7 2.7 16.5 10 7.2 29.4 36.5 50.7 69.7 50.7 35.3 0 65-23 70.5-54.7 1.3-7.4 8.4-12.4 15.8-11.1 7.4 1.3 12.4 8.4 11.1 15.8-7.8 44.7-48.7 77.3-97.4 77.3z" fill="#010102" p-id="7632"></path><path d="M459.3 648.2m-27.1 0a27.1 27.1 0 1 0 54.2 0 27.1 27.1 0 1 0-54.2 0Z" fill="#010102" p-id="7633"></path><path d="M666.3 648.2m-27.1 0a27.1 27.1 0 1 0 54.2 0 27.1 27.1 0 1 0-54.2 0Z" fill="#010102" p-id="7634"></path><path d="M343.2 560.9L509.8 255l137.7 305.9z" fill="#B4FF64" p-id="7635"></path><path d="M391 537.3c-1.5 0-3-0.4-4.5-1.1-4.6-2.5-6.3-8.2-3.9-12.8l68.6-127.7c2.5-4.6 8.2-6.3 12.8-3.9 4.6 2.5 6.3 8.2 3.9 12.8l-68.6 127.7c-1.7 3.2-4.9 5-8.3 5z" fill="#FDFFFF" p-id="7636"></path><path d="M647.5 560.9l113.4-208.1 113.4 208.1z" fill="#B4FF64" p-id="7637"></path><path d="M680 544.8c-1 0-2.1-0.2-3-0.8-3.1-1.7-4.3-5.6-2.6-8.7l46.7-86.9c1.7-3.1 5.6-4.3 8.7-2.6 3.1 1.7 4.3 5.6 2.6 8.7l-46.7 86.9c-1.2 2.2-3.4 3.4-5.7 3.4z" fill="#FDFFFF" p-id="7638"></path><path d="M944.6 553.1h-91.8l-19.6-34c-4.4-7.5-14-10.1-21.5-5.8-7.5 4.4-10.1 14-5.8 21.5l28.7 49.7h110c8.7 0 15.8-7.1 15.8-15.8s-7.1-15.6-15.8-15.6zM735.6 350.1c-6.3-10.8-22-10.6-27.9 0.4L609.6 533 473.2 224c-5.7-12.8-23.6-13.6-30.3-1.2l-25.7 47.3c-3.9 7.2-2.1 16.6 4.7 21.2 7.8 5.3 18.3 2.6 22.7-5.5l11.8-21.7 134.9 305.6c6.3 14.3 26.3 15.1 33.7 1.3l97.2-181 50.7 87.8c4.3 7.5 14 10.1 21.5 5.8 7.5-4.4 10.1-14 5.8-21.5l-64.6-112zM390.1 356.4c-7.6-4.2-17.2-1.4-21.4 6.2L263.5 553.1h-34.8c-8.7 0-15.8 7.1-15.8 15.8s7.1 15.8 15.8 15.8h53.5l114.1-206.8c4.2-7.7 1.4-17.3-6.2-21.5zM137.2 553.1H79.4c-8.7 0-15.8 7.1-15.8 15.8s7.1 15.8 15.8 15.8h57.8c8.7 0 15.8-7.1 15.8-15.8s-7.1-15.8-15.8-15.8z" fill="" p-id="7639"></path><path d="M183.5 568.9m-17.9 0a17.9 17.9 0 1 0 35.8 0 17.9 17.9 0 1 0-35.8 0Z" fill="" p-id="7640"></path><path d="M407.7 324.8m-17.9 0a17.9 17.9 0 1 0 35.8 0 17.9 17.9 0 1 0-35.8 0Z" fill="" p-id="7641"></path></svg>