<?xml version="1.0" standalone="no"?><!DOCTYPE svg PUBLIC "-//W3C//DTD SVG 1.1//EN" "http://www.w3.org/Graphics/SVG/1.1/DTD/svg11.dtd"><svg t="1713616236697" class="icon" viewBox="0 0 1024 1024" version="1.1" xmlns="http://www.w3.org/2000/svg" p-id="6653" xmlns:xlink="http://www.w3.org/1999/xlink" width="200" height="200"><path d="M571.648 311.2704c-28.5184-37.7856-30.848-63.9488-30.848-91.8272C540.8 154.88 594.0992 102.4 659.6608 102.4c34.0992 0 66.56 14.4128 89.1392 39.6032A119.6288 119.6288 0 0 1 837.9392 102.4c65.5616 0 118.8608 52.48 118.8608 117.0432 0 27.8784-2.304 54.016-30.848 91.8272-26.112 34.56-73.5488 79.4624-163.6864 154.88a21.0432 21.0432 0 0 1-26.9312 0c-90.1376-75.4176-137.5744-120.32-163.6864-154.88z" fill="#999999" p-id="6654"></path><path d="M977.6128 593.92h-416a20.736 20.736 0 0 0-20.0192 14.848l-61.8496 213.1968-147.584-581.1712a20.736 20.736 0 0 0-20.1472-15.5136h-0.2816a20.736 20.736 0 0 0-20.0448 16.0512L212.1216 593.92H20.8128A20.6336 20.6336 0 0 0 0 614.4c0 11.3152 9.3184 20.48 20.8128 20.48h208c9.728 0 18.176-6.656 20.3008-16.0256l64.0768-283.9552L458.24 906.0864a20.736 20.736 0 0 0 19.8144 15.5136h0.3584a20.736 20.736 0 0 0 19.968-14.848L577.28 634.88h400.3072A20.6336 20.6336 0 0 0 998.4 614.4c0-11.3152-9.3184-20.48-20.8128-20.48z" fill="#3BA0ED" p-id="6655"></path></svg>